<?xml version="1.0" standalone="no"?>
<!DOCTYPE svg PUBLIC "-//W3C//DTD SVG 20010904//EN"
 "http://www.w3.org/TR/2001/REC-SVG-20010904/DTD/svg10.dtd">
<svg version="1.0" xmlns="http://www.w3.org/2000/svg"
 width="600.000000pt" height="600.000000pt" viewBox="0 0 600.000000 600.000000"
 preserveAspectRatio="xMidYMid meet">

<g transform="translate(0.000000,600.000000) scale(0.100000,-0.100000)"
fill="#000000" stroke="none">
<path d="M2825 4923 c-96 -120 -289 -423 -354 -554 -99 -199 -119 -296 -86
-424 72 -280 340 -451 617 -394 136 28 279 131 346 251 45 79 76 206 69 283
-15 158 -156 429 -394 755 -121 166 -129 170 -198 83z m225 -301 c122 -183
232 -394 256 -492 52 -211 -110 -439 -344 -482 -220 -41 -444 121 -484 349
-10 60 -9 80 5 139 32 127 190 408 360 638 l51 69 23 -29 c13 -16 73 -102 133
-192z"/>
<path d="M2584 4155 c-42 -29 -36 -152 11 -245 29 -58 112 -135 173 -162 54
-25 183 -35 224 -19 35 13 48 56 24 79 -12 13 -36 17 -99 17 -71 0 -88 4 -128
27 -89 52 -129 122 -129 224 0 54 -3 65 -22 78 -27 19 -29 20 -54 1z"/>
<path d="M3618 4018 c-42 -34 -259 -351 -353 -518 -118 -207 -157 -344 -136
-472 42 -252 260 -438 513 -438 153 0 266 46 371 151 139 138 189 330 132 504
-46 140 -180 376 -351 616 -122 172 -138 186 -176 157z m115 -245 c169 -241
305 -493 328 -608 39 -193 -101 -407 -303 -461 -106 -28 -253 -8 -333 46 -101
67 -177 183 -196 301 -15 87 3 158 81 314 79 160 322 531 340 520 4 -2 41 -53
83 -112z"/>
<path d="M3287 3212 c-23 -25 -23 -142 0 -208 35 -107 104 -184 213 -240 46
-23 70 -28 152 -32 110 -5 148 9 148 52 0 40 -24 50 -106 47 -107 -4 -165 18
-235 88 -66 67 -89 124 -89 222 0 57 -3 70 -19 79 -28 15 -46 12 -64 -8z"/>
<path d="M2558 3468 c-44 -36 -339 -459 -458 -658 -92 -152 -194 -361 -230
-470 -67 -204 -44 -402 71 -597 44 -74 178 -209 251 -252 180 -105 404 -138
593 -86 326 88 556 386 557 720 1 90 -3 112 -37 215 -79 237 -289 596 -578
990 -111 152 -131 168 -169 138z m138 -271 c263 -368 444 -680 515 -887 30
-88 37 -231 15 -325 -42 -179 -165 -338 -325 -424 -110 -58 -184 -76 -316 -75
-105 0 -130 3 -200 28 -253 88 -425 303 -451 565 -18 182 106 466 389 891 110
166 257 370 266 370 3 0 52 -64 107 -143z"/>
<path d="M2064 2266 c-19 -30 -21 -157 -4 -231 49 -203 218 -376 420 -430 57
-15 203 -20 259 -9 18 4 39 17 48 30 14 22 14 26 -1 48 -15 24 -18 25 -119 19
-160 -9 -274 32 -378 136 -97 97 -142 214 -138 354 3 68 1 81 -16 93 -28 21
-53 17 -71 -10z"/>
</g>
</svg>
